<svg xmlns="http://www.w3.org/2000/svg" width="200" height="200" viewBox="0 0 200 200"><path d="M138.456,195.363V178.6a4.637,4.637,0,0,1,9.274,0v16.758a4.637,4.637,0,0,1-9.274,0Zm-21.546,0V178.6a4.637,4.637,0,0,1,9.274,0v16.758a4.637,4.637,0,0,1-9.274,0Zm-21.546,0V178.6a4.637,4.637,0,0,1,9.274,0v16.758a4.637,4.637,0,0,1-9.274,0Zm-21.546,0V178.6a4.637,4.637,0,1,1,9.274,0v16.758a4.637,4.637,0,1,1-9.274,0Zm-21.546,0V178.6a4.637,4.637,0,0,1,9.274,0v16.758a4.637,4.637,0,0,1-9.274,0Zm-7.333-32.338a8.253,8.253,0,0,1-8.253-8.253V45.444a8.252,8.252,0,0,1,8.253-8.253H154.265a8.252,8.252,0,0,1,8.253,8.253V154.772a8.253,8.253,0,0,1-8.253,8.253Zm109.328-8.253V45.444H44.937V154.772H75.255V98.244a16.6,16.6,0,1,1,8.253,0v56.528ZM71.034,82.163a8.347,8.347,0,1,0,8.347-8.347A8.347,8.347,0,0,0,71.034,82.163ZM178.6,147.73a4.637,4.637,0,1,1,0-9.274h16.758a4.637,4.637,0,1,1,0,9.274Zm-173.967,0a4.637,4.637,0,1,1,0-9.274H21.4a4.637,4.637,0,1,1,0,9.274Zm99.382-27.252A16.63,16.63,0,0,1,116.493,104.4V45.444h8.253V104.4a16.6,16.6,0,1,1-20.726,16.081Zm8.253,0a8.347,8.347,0,1,0,8.347-8.347A8.347,8.347,0,0,0,112.272,120.478Zm66.332,5.705a4.637,4.637,0,1,1,0-9.274h16.758a4.637,4.637,0,1,1,0,9.274Zm-173.967,0a4.637,4.637,0,1,1,0-9.274H21.4a4.637,4.637,0,1,1,0,9.274ZM178.6,104.637a4.637,4.637,0,1,1,0-9.274h16.758a4.637,4.637,0,1,1,0,9.274Zm-173.967,0a4.637,4.637,0,1,1,0-9.274H21.4a4.637,4.637,0,1,1,0,9.274ZM178.6,83.09a4.637,4.637,0,1,1,0-9.274h16.758a4.637,4.637,0,1,1,0,9.274Zm-173.967,0a4.637,4.637,0,1,1,0-9.274H21.4a4.637,4.637,0,1,1,0,9.274ZM178.6,61.544a4.637,4.637,0,0,1,0-9.274h16.758a4.637,4.637,0,0,1,0,9.274Zm-173.967,0a4.637,4.637,0,0,1,0-9.274H21.4a4.637,4.637,0,0,1,0,9.274ZM138.456,21.4V4.637a4.637,4.637,0,1,1,9.274,0V21.4a4.637,4.637,0,1,1-9.274,0Zm-21.546,0V4.637a4.637,4.637,0,1,1,9.274,0V21.4a4.637,4.637,0,1,1-9.274,0Zm-21.546,0V4.637a4.637,4.637,0,0,1,9.274,0V21.4a4.637,4.637,0,0,1-9.274,0Zm-21.546,0V4.637a4.637,4.637,0,1,1,9.274,0V21.4a4.637,4.637,0,1,1-9.274,0Zm-21.546,0V4.637a4.637,4.637,0,0,1,9.274,0V21.4a4.637,4.637,0,0,1-9.274,0Z"/></svg>